<svg data-name="Group 7" xmlns="http://www.w3.org/2000/svg" width="39.853" height="41.622"><path data-name="Path 44" d="M27.407 11.56a11.214 11.214 0 1 0-14.2 17.33 1.129 1.129 0 0 1 .431.942v4.549a4.018 4.018 0 0 0 2.233 3.6l.265.133v1.271a2.237 2.237 0 0 0 2.236 2.236h3.112a2.237 2.237 0 0 0 2.233-2.236v-1.271l.265-.133a4.009 4.009 0 0 0 2.23-3.6v-4.566a1.116 1.116 0 0 1 .441-.929 11.2 11.2 0 0 0 .753-17.327m-5.245 27.829a.689.689 0 0 1-.677.677h-3.112a.687.687 0 0 1-.68-.677v-.979h4.469zm2.5-5.007a2.477 2.477 0 0 1-2.475 2.472h-3.814l6.288-2.6zm0-1.639a.557.557 0 0 0-.07.02l-8.126 3.361a.7.7 0 0 0-.285.219 2.47 2.47 0 0 1-.916-1.407l9.171-3.789a.92.92 0 0 0 .146-.083l.076-.056v1.735zm-9.463.7v-2.9h7.028zm10.522-5.8a2.628 2.628 0 0 0-.972 1.486h-9.637a2.62 2.62 0 0 0-.969-1.483 9.62 9.62 0 0 1-3.842-8.551 9.757 9.757 0 0 1 8.521-8.776 10.522 10.522 0 0 1 1.118-.063 9.5 9.5 0 0 1 6.43 2.462 9.686 9.686 0 0 1 3.222 7.2 9.574 9.574 0 0 1-3.872 7.721" fill="#fff"/><path data-name="Path 45" d="M17.835 13.309a.661.661 0 0 0-.358-.1.628.628 0 0 0-.156.02 6.644 6.644 0 0 0-5.01 5.714.684.684 0 0 0 .156.5.674.674 0 0 0 .461.242.685.685 0 0 0 .743-.614 5.324 5.324 0 0 1 3.955-4.516.685.685 0 0 0 .425-.3.687.687 0 0 0-.216-.942" fill="#fff"/><path data-name="Rectangle 42" fill="#fff" d="M19.175 0h1.506v6.128h-1.506z"/><path data-name="Rectangle 43" fill="#fff" d="M11.607 1.807l1.39-.576 2.348 5.663-1.39.576z"/><path data-name="Rectangle 44" fill="#fff" d="M5.306 6.37l1.065-1.065 4.333 4.333-1.065 1.065z"/><path data-name="Rectangle 45" fill="#fff" d="M1.229 12.998l.577-1.392 5.664 2.347-.577 1.393z"/><path data-name="Rectangle 46" fill="#fff" d="M0 19.172h6.128v1.506H0z"/><path data-name="Rectangle 47" fill="#fff" d="M33.725 19.172h6.128v1.506h-6.128z"/><path data-name="Rectangle 48" fill="#fff" d="M32.387 13.95l5.664-2.348.577 1.392-5.664 2.348z"/><path data-name="Rectangle 49" fill="#fff" d="M29.152 9.641l4.335-4.334 1.062 1.062-4.334 4.335z"/><path data-name="Rectangle 50" fill="#fff" d="M24.513 6.895l2.34-5.665 1.39.575-2.339 5.664z"/></svg>