<svg xmlns="http://www.w3.org/2000/svg" width="360" height="740"><defs><linearGradient id="b" x1=".5" x2=".5" y2="1" gradientUnits="objectBoundingBox"><stop offset="0" stop-color="#e38e2c"/><stop offset=".48" stop-color="#6d3214"/><stop offset="1" stop-color="#380909"/></linearGradient><linearGradient id="c" x1=".5" x2=".5" y2="1" gradientUnits="objectBoundingBox"><stop offset="0" stop-color="#000f33"/><stop offset="1" stop-color="#28d1dd"/></linearGradient><linearGradient id="d" x1=".5" x2=".5" y2="1" gradientUnits="objectBoundingBox"><stop offset="0" stop-color="#5d5d5d"/><stop offset="1" stop-color="#cde3ba"/></linearGradient><filter id="e" x="0" y="441" width="360" height="21" filterUnits="userSpaceOnUse"><feOffset dy="-2"/><feGaussianBlur result="blur"/><feFlood flood-color="#c4c2c2"/><feComposite operator="in" in2="blur"/><feComposite in="SourceGraphic"/></filter><clipPath id="a"><path d="M0 0h360v740H0z"/></clipPath></defs><g data-name="custom – 13" clip-path="url(#a)"><path fill="#303030" d="M0 0h360v740H0z"/><path data-name="Rectangle 71" transform="translate(0 462)" fill="url(#b)" d="M0 0h360v278H0z"/><path data-name="Rectangle 65" fill="url(#c)" d="M0 0h41v443H0z"/><path data-name="Rectangle 69" transform="translate(159.5)" fill="url(#c)" d="M0 0h41v443H0z"/><path data-name="Rectangle 67" transform="translate(79.75)" fill="url(#c)" d="M0 0h41v443H0z"/><path data-name="Rectangle 73" transform="translate(239.25)" fill="url(#c)" d="M0 0h41v443H0z"/><path data-name="Rectangle 75" transform="translate(319)" fill="url(#c)" d="M0 0h41v443H0z"/><path data-name="Rectangle 66" transform="translate(41)" fill="url(#d)" d="M0 0h41v443H0z"/><path data-name="Rectangle 72" transform="translate(199.375)" fill="url(#d)" d="M0 0h41v443H0z"/><path data-name="Rectangle 68" transform="translate(119.625)" fill="url(#d)" d="M0 0h41v443H0z"/><path data-name="Rectangle 74" transform="translate(278)" fill="url(#d)" d="M0 0h41v443H0z"/><g filter="url(#e)"><path data-name="Rectangle 70" fill="#f3ddd7" d="M0 443h360v19H0z"/></g><path data-name="Rectangle 91" fill="#1b423c" opacity=".15" d="M0 0h360v740H0z"/></g></svg>