<svg xmlns="http://www.w3.org/2000/svg" width="27.97" height="41.687"><g data-name="Group 6" fill="#fff"><path data-name="Path 41" d="M9.7 41.687v-2.91a.715.715 0 0 0-.125-.4l-1.538-2.335h8.925a.741.741 0 0 0 .741-.741v-3.386a3.565 3.565 0 0 1 1.025-2.507l2.8-2.651v-.006a.771.771 0 0 0 .159-.228v-.009a.765.765 0 0 0 .059-.263v-.032a.767.767 0 0 0-.044-.244l-.006-.025a.819.819 0 0 0-.15-.231v-.009h-.009a.65.65 0 0 0-.228-.163l-.009-.006a.7.7 0 0 0-.259-.056h-5.545a1.978 1.978 0 0 1-1.973-1.969v-.5a1.973 1.973 0 0 1 1.973-1.966h8.488c1.522 1.066 3.5 5.53 1.713 12.317v.009c-.138.541-.413.719-1.085 1.1l.741 1.285a3.136 3.136 0 0 0 1.773-2.013l.006-.006c2.345-8.034-.725-13.508-3.148-14.38V2.717A2.718 2.718 0 0 0 21.27 0H6.462a2.718 2.718 0 0 0-2.714 2.717v5.708h-.944a2.8 2.8 0 0 0-.35 5.586 2.8 2.8 0 0 0 .35 5.586 2.804 2.804 0 1 0 0 5.608 2.806 2.806 0 0 0 0 5.611h.944v2.5a2.717 2.717 0 0 0 2.507 2.709l1.96 2.973v2.685M3.748 29.525h-.944a1.508 1.508 0 0 1 0-3.017h.944zm0-5.605h-.944a1.512 1.512 0 0 1 0-3.023h.944zm0-5.612h-.944a1.51 1.51 0 0 1 0-3.02h.944zm0-5.561h-.944a1.51 1.51 0 0 1 0-3.02h.944zm18.757 6.812h-7.009a3.454 3.454 0 0 0-3.451 3.451v.5a3.454 3.454 0 0 0 3.451 3.451h3.67l-1.347 1.282a4.983 4.983 0 0 0-1.6 3.673v2.645h-9.76a1.236 1.236 0 0 1-1.235-1.238V2.717a1.231 1.231 0 0 1 1.235-1.232h14.816a1.235 1.235 0 0 1 1.235 1.232z"/><path data-name="Path 42" d="M21.355 4.743a1.88 1.88 0 0 0-1.879-1.876H8.25a1.877 1.877 0 0 0-1.876 1.876v26.332a1.877 1.877 0 0 0 1.876 1.876h6.274v-1.022H8.25a.856.856 0 0 1-.853-.853V4.743a.854.854 0 0 1 .853-.85h11.226a.852.852 0 0 1 .853.85v13.014h1.025z"/><path data-name="Path 43" d="M13.858 6.087a4.2 4.2 0 1 0 4.2 4.2 4.2 4.2 0 0 0-4.2-4.2m-.366 5.993l-1.8-1.794.747-.747 1.05 1.047 2.1-2.1.747.747z"/></g></svg>