<svg xmlns="http://www.w3.org/2000/svg" width="52.2" height="38.828"><g data-name="Group 20"><g data-name="Group 9"><g data-name="Group 8"><path data-name="Path 46" d="M45.326 32.12H6.871a3.093 3.093 0 0 1-3.085-3.086V3.089A3.093 3.093 0 0 1 6.875 0h38.451a3.091 3.091 0 0 1 3.089 3.089v25.945a3.091 3.091 0 0 1-3.089 3.086zM6.871 2.434a.668.668 0 0 0-.661.657v25.943a.672.672 0 0 0 .661.661h38.455a.663.663 0 0 0 .661-.661V3.089a.668.668 0 0 0-.661-.657z" fill="#fff"/></g></g><g data-name="Group 11"><g data-name="Group 10"><path data-name="Path 47" d="M50.985 38.829H1.216a1.216 1.216 0 0 1-.932-2l3.693-4.372a1.224 1.224 0 0 1 .932-.43h42.383a1.208 1.208 0 0 1 .928.43l3.693 4.378a1.214 1.214 0 0 1-.928 2zM3.831 36.401h44.535l-1.642-1.95H5.472z" fill="#fff"/></g></g><g data-name="Group 13"><g data-name="Group 12"><path data-name="Path 48" d="M47.203 28.832h-42.2a1.216 1.216 0 0 1 0-2.432h42.2a1.216 1.216 0 0 1 0 2.432z" fill="#fff"/></g></g><g data-name="Group 15"><g data-name="Group 14"><path data-name="Path 49" d="M19.809 21.788a1.213 1.213 0 0 1-.859-.357l-4.507-4.511a1.212 1.212 0 0 1 0-1.719l4.516-4.52a1.216 1.216 0 1 1 1.723 1.715l-3.656 3.664 3.652 3.656a1.214 1.214 0 0 1-.859 2.071z" fill="#fff"/></g></g><g data-name="Group 17"><g data-name="Group 16"><path data-name="Path 50" d="M32.387 21.788a1.214 1.214 0 0 1-.859-2.071l3.656-3.656-3.656-3.664a1.216 1.216 0 1 1 1.723-1.715l4.512 4.52a1.216 1.216 0 0 1 0 1.719l-4.516 4.512a1.2 1.2 0 0 1-.86.355z" fill="#fff"/></g></g><g data-name="Group 19"><g data-name="Group 18"><path data-name="Path 51" d="M24.18 21.748a1.266 1.266 0 0 1-.4-.069 1.22 1.22 0 0 1-.746-1.549l3.141-8.95a1.218 1.218 0 0 1 2.3.8l-3.141 8.95a1.227 1.227 0 0 1-1.154.818z" fill="#fff"/></g></g></g></svg>