<svg id="Group_7" data-name="Group 7" xmlns="http://www.w3.org/2000/svg" width="39.853" height="41.622" viewBox="0 0 39.853 41.622">
  <path id="Path_44" data-name="Path 44" d="M58.776,308.662h0a11.214,11.214,0,1,0-14.2,17.33,1.129,1.129,0,0,1,.431.942v4.549a4.018,4.018,0,0,0,2.233,3.6l.265.133v1.271a2.237,2.237,0,0,0,2.236,2.236h3.112a2.237,2.237,0,0,0,2.233-2.236v-1.271l.265-.133a4.009,4.009,0,0,0,2.23-3.6v-4.566a1.116,1.116,0,0,1,.441-.929,11.2,11.2,0,0,0,.753-17.327M53.53,336.49a.689.689,0,0,1-.677.677H49.741a.687.687,0,0,1-.68-.677v-.979H53.53Zm2.5-5.007a2.477,2.477,0,0,1-2.475,2.472H49.741l6.288-2.6Zm0-1.639a.557.557,0,0,0-.07.02l-8.126,3.361a.7.7,0,0,0-.285.219,2.47,2.47,0,0,1-.916-1.407l9.171-3.789a.92.92,0,0,0,.146-.083l.076-.056v1.735Zm-9.463.7v-2.9h7.028Zm10.522-5.8a2.628,2.628,0,0,0-.972,1.486H46.48a2.62,2.62,0,0,0-.969-1.483,9.62,9.62,0,0,1-3.842-8.551,9.757,9.757,0,0,1,8.521-8.776,10.522,10.522,0,0,1,1.118-.063,9.5,9.5,0,0,1,6.43,2.462,9.686,9.686,0,0,1,3.222,7.2,9.574,9.574,0,0,1-3.872,7.721" transform="translate(-31.369 -297.102)" fill="#fff"/>
  <path id="Path_45" data-name="Path 45" d="M46.689,307.265a.661.661,0,0,0-.358-.1.628.628,0,0,0-.156.02,6.644,6.644,0,0,0-5.01,5.714.684.684,0,0,0,.156.5.674.674,0,0,0,.461.242.685.685,0,0,0,.743-.614,5.324,5.324,0,0,1,3.955-4.516.685.685,0,0,0,.425-.3.687.687,0,0,0-.216-.942" transform="translate(-28.854 -293.956)" fill="#fff"/>
  <rect id="Rectangle_42" data-name="Rectangle 42" width="1.506" height="6.128" transform="translate(19.175)" fill="#fff"/>
  <rect id="Rectangle_43" data-name="Rectangle 43" width="1.505" height="6.129" transform="matrix(0.924, -0.383, 0.383, 0.924, 11.607, 1.807)" fill="#fff"/>
  <rect id="Rectangle_44" data-name="Rectangle 44" width="1.506" height="6.128" transform="translate(5.306 6.37) rotate(-44.999)" fill="#fff"/>
  <rect id="Rectangle_45" data-name="Rectangle 45" width="1.507" height="6.13" transform="matrix(0.383, -0.924, 0.924, 0.383, 1.229, 12.998)" fill="#fff"/>
  <rect id="Rectangle_46" data-name="Rectangle 46" width="6.128" height="1.506" transform="translate(0 19.172)" fill="#fff"/>
  <rect id="Rectangle_47" data-name="Rectangle 47" width="6.128" height="1.506" transform="translate(33.725 19.172)" fill="#fff"/>
  <rect id="Rectangle_48" data-name="Rectangle 48" width="6.13" height="1.506" transform="matrix(0.924, -0.383, 0.383, 0.924, 32.387, 13.95)" fill="#fff"/>
  <rect id="Rectangle_49" data-name="Rectangle 49" width="6.13" height="1.503" transform="translate(29.152 9.641) rotate(-44.999)" fill="#fff"/>
  <rect id="Rectangle_50" data-name="Rectangle 50" width="6.129" height="1.505" transform="translate(24.513 6.895) rotate(-67.561)" fill="#fff"/>
</svg>
