<svg xmlns="http://www.w3.org/2000/svg" width="92.879" height="89.001" viewBox="0 0 92.879 89.001">
  <g id="portfoliobox" transform="translate(-21.12 -22.999)">
    <path id="Union_12" data-name="Union 12" d="M-6190-778a4,4,0,0,1-4-4l19-40a4.02,4.02,0,0,1,.031-.5,4.02,4.02,0,0,1-.031-.5l-19-40a4,4,0,0,1,4-4h40a4,4,0,0,1,4,4l19,40a4.02,4.02,0,0,1-.031.5,4.02,4.02,0,0,1,.031.5l-19,40a4,4,0,0,1-4,4Z" transform="translate(6241 890)" fill="#707070"/>
    <path id="Path_67" data-name="Path 67" d="M6252.178,907.03l11.043,22.656-6.714,12.539,6.091,11.824v3.2L6251.3,980.623l-21.808-38.4Z" transform="translate(-6208.376 -876.549)" fill="#707070" opacity="0.65"/>
  </g>
</svg>
