<svg xmlns="http://www.w3.org/2000/svg" width="88.001" height="88.001" viewBox="0 0 88.001 88.001">
  <g id="the-dots" transform="translate(-24 -23.999)">
    <path id="Exclusion_1" data-name="Exclusion 1" d="M-5987-779a43.724,43.724,0,0,1-17.126-3.458,43.844,43.844,0,0,1-13.985-9.43,43.849,43.849,0,0,1-9.43-13.986A43.726,43.726,0,0,1-6031-823a43.728,43.728,0,0,1,3.458-17.127,43.845,43.845,0,0,1,9.43-13.986,43.844,43.844,0,0,1,13.985-9.43A43.723,43.723,0,0,1-5987-867a43.724,43.724,0,0,1,17.127,3.458,43.858,43.858,0,0,1,13.986,9.43,43.844,43.844,0,0,1,9.43,13.986A43.727,43.727,0,0,1-5943-823a43.725,43.725,0,0,1-3.458,17.127,43.842,43.842,0,0,1-9.43,13.986,43.858,43.858,0,0,1-13.986,9.43A43.727,43.727,0,0,1-5987-779Zm0-85a41.046,41.046,0,0,0-41,41,41.046,41.046,0,0,0,41,41,41.047,41.047,0,0,0,41-41A41.047,41.047,0,0,0-5987-864Z" transform="translate(6055 891)" fill="#707070"/>
    <circle id="Ellipse_13" data-name="Ellipse 13" cx="7" cy="7" r="7" transform="translate(61 41)" fill="#707070"/>
    <circle id="Ellipse_16" data-name="Ellipse 16" cx="7" cy="7" r="7" transform="translate(81 61)" fill="#707070"/>
    <circle id="Ellipse_17" data-name="Ellipse 17" cx="7" cy="7" r="7" transform="translate(41 61)" fill="#707070"/>
    <circle id="Ellipse_14" data-name="Ellipse 14" cx="7" cy="7" r="7" transform="translate(61 61)" fill="#707070"/>
    <circle id="Ellipse_15" data-name="Ellipse 15" cx="7" cy="7" r="7" transform="translate(61 81)" fill="#707070"/>
  </g>
</svg>
