<svg xmlns="http://www.w3.org/2000/svg" width="27.97" height="41.687" viewBox="0 0 27.97 41.687">
  <g id="Group_6" data-name="Group 6" transform="translate(0)">
    <path id="Path_41" data-name="Path 41" d="M48.125,289.062v-2.91a.715.715,0,0,0-.125-.4l-1.538-2.335h8.925a.741.741,0,0,0,.741-.741l0-.025,0-.025V279.29a3.565,3.565,0,0,1,1.025-2.507l2.8-2.651v-.006a.771.771,0,0,0,.159-.228l0-.009a.765.765,0,0,0,.059-.263v-.019l0-.013a.767.767,0,0,0-.044-.244l-.006-.025a.819.819,0,0,0-.15-.231l0-.009-.009,0a.65.65,0,0,0-.228-.163l-.009-.006a.7.7,0,0,0-.259-.056h-.022l-.009,0H53.921a1.978,1.978,0,0,1-1.973-1.969v-.5a1.973,1.973,0,0,1,1.973-1.966h8.488c1.522,1.066,3.5,5.53,1.713,12.317v.009c-.138.541-.413.719-1.085,1.1l.741,1.285a3.136,3.136,0,0,0,1.773-2.013l.006-.006c2.345-8.034-.725-13.508-3.148-14.38V250.092a2.718,2.718,0,0,0-2.714-2.717H44.887a2.718,2.718,0,0,0-2.714,2.717V255.8h-.944a2.8,2.8,0,0,0-.35,5.586,2.8,2.8,0,0,0,.35,5.586,2.8,2.8,0,1,0,0,5.608,2.806,2.806,0,0,0,0,5.611h.944v2.5A2.717,2.717,0,0,0,44.68,283.4l1.96,2.973v2.685M42.173,276.9h-.944a1.508,1.508,0,0,1,0-3.017h.944Zm0-5.605h-.944a1.512,1.512,0,0,1,0-3.023h.944Zm0-5.612h-.944a1.51,1.51,0,0,1,0-3.02h.944Zm0-5.561h-.944a1.51,1.51,0,0,1,0-3.02h.944Zm18.757,6.812H53.921a3.454,3.454,0,0,0-3.451,3.451v.5a3.454,3.454,0,0,0,3.451,3.451h3.67l-1.347,1.282a4.983,4.983,0,0,0-1.6,3.673v2.645h-9.76a1.236,1.236,0,0,1-1.235-1.238V250.092a1.231,1.231,0,0,1,1.235-1.232H59.7a1.235,1.235,0,0,1,1.235,1.232Z" transform="translate(-38.425 -247.375)" fill="#fff"/>
    <path id="Path_42" data-name="Path 42" d="M55.445,250.168a1.88,1.88,0,0,0-1.879-1.876H42.34a1.877,1.877,0,0,0-1.876,1.876V276.5a1.877,1.877,0,0,0,1.876,1.876h6.274v-1.022H42.34a.856.856,0,0,1-.853-.853V250.168a.854.854,0,0,1,.853-.85H53.566a.852.852,0,0,1,.853.85v13.014h1.025Z" transform="translate(-34.09 -245.425)" fill="#fff"/>
    <path id="Path_43" data-name="Path 43" d="M45.713,249.322a4.2,4.2,0,1,0,4.2,4.2,4.2,4.2,0,0,0-4.2-4.2m-.366,5.993-1.8-1.794.747-.747,1.05,1.047,2.1-2.1.747.747Z" transform="translate(-31.855 -243.235)" fill="#fff"/>
  </g>
</svg>
