<svg xmlns="http://www.w3.org/2000/svg" width="52.2" height="38.828" viewBox="0 0 52.2 38.828">
  <g id="Group_20" data-name="Group 20" transform="translate(0)">
    <g id="Group_9" data-name="Group 9" transform="translate(3.782)">
      <g id="Group_8" data-name="Group 8">
        <path id="Path_46" data-name="Path 46" d="M79.14,355.286H40.685A3.093,3.093,0,0,1,37.6,352.2V326.255a3.093,3.093,0,0,1,3.089-3.089H79.14a3.091,3.091,0,0,1,3.089,3.089V352.2A3.091,3.091,0,0,1,79.14,355.286ZM40.685,325.6a.668.668,0,0,0-.661.657V352.2a.672.672,0,0,0,.661.661H79.14a.663.663,0,0,0,.661-.661V326.255a.668.668,0,0,0-.661-.657Z" transform="translate(-37.596 -323.166)" fill="#fff"/>
      </g>
    </g>
    <g id="Group_11" data-name="Group 11" transform="translate(0 32.023)">
      <g id="Group_10" data-name="Group 10">
        <path id="Path_47" data-name="Path 47" d="M87.648,337.872H37.879a1.216,1.216,0,0,1-.932-2L40.64,331.5a1.224,1.224,0,0,1,.932-.43H83.955a1.208,1.208,0,0,1,.928.43l3.693,4.378a1.214,1.214,0,0,1-.928,2Zm-47.154-2.428H85.029l-1.642-1.95H42.135Z" transform="translate(-36.663 -331.066)" fill="#fff"/>
      </g>
    </g>
    <g id="Group_13" data-name="Group 13" transform="translate(3.782 26.4)">
      <g id="Group_12" data-name="Group 12">
        <path id="Path_48" data-name="Path 48" d="M81.017,332.111h-42.2a1.216,1.216,0,0,1,0-2.432h42.2a1.216,1.216,0,0,1,0,2.432Z" transform="translate(-37.596 -329.679)" fill="#fff"/>
      </g>
    </g>
    <g id="Group_15" data-name="Group 15" transform="translate(14.079 10.322)">
      <g id="Group_14" data-name="Group 14">
        <path id="Path_49" data-name="Path 49" d="M45.866,337.178a1.213,1.213,0,0,1-.859-.357L40.5,332.31a1.212,1.212,0,0,1,0-1.719l4.516-4.52a1.215,1.215,0,1,1,1.723,1.715l-3.656,3.664,3.652,3.656a1.214,1.214,0,0,1-.859,2.071Z" transform="translate(-40.136 -325.712)" fill="#fff"/>
      </g>
    </g>
    <g id="Group_17" data-name="Group 17" transform="translate(31.172 10.322)">
      <g id="Group_16" data-name="Group 16">
        <path id="Path_50" data-name="Path 50" d="M45.568,337.178a1.214,1.214,0,0,1-.859-2.071l3.656-3.656-3.656-3.664a1.215,1.215,0,1,1,1.723-1.715l4.512,4.52a1.216,1.216,0,0,1,0,1.719l-4.516,4.512A1.2,1.2,0,0,1,45.568,337.178Z" transform="translate(-44.353 -325.712)" fill="#fff"/>
      </g>
    </g>
    <g id="Group_19" data-name="Group 19" transform="translate(22.965 10.373)">
      <g id="Group_18" data-name="Group 18">
        <path id="Path_51" data-name="Path 51" d="M43.543,337.1a1.266,1.266,0,0,1-.4-.069,1.22,1.22,0,0,1-.746-1.549l3.141-8.95a1.217,1.217,0,0,1,2.3.8l-3.141,8.95A1.227,1.227,0,0,1,43.543,337.1Z" transform="translate(-42.328 -325.725)" fill="#fff"/>
      </g>
    </g>
  </g>
</svg>
